<svg id="Layer_1" data-name="Layer 1" xmlns="http://www.w3.org/2000/svg" width="938.44" height="635.17"
     viewBox="0 0 938.44 635.17">
    <title>level1</title>
    <path d="M565.24,696.19l-17.13-5.09L531,686l-39.09-39.09L452.8,607.83l-32.4-.34-32.4-.34-26.18,22-26.18,22-14.83,4.2L306,659.59l-23.5-3.5-23.5-3.5-14.84-12.08L229.3,628.43l-9-24.5-9-24.5-.91-3.48-.91-3.48-10-62-10-62-.23-3.62-.23-3.62,1.5-44,1.5-44,3.58-10.4,3.58-10.4,19.49-26.75,19.49-26.75-8.84-23-8.84-23-1.07-9.32-1.07-9.32,3-21.5,3-21.5,2.61-7.25,2.61-7.25,14.5-23.5,14.5-23.5,8.91-7.53,8.91-7.53,34.5-14,34.5-14,6.46-1.37L358.32,64l47.5-1.5,47.5-1.5,3.91.29,3.91.29,50,9,50,9,5.23,1.77,5.23,1.77,40,20.5,40,20.5,6.71,5.79L665,135.7l17.5,24.5L700,184.7l3.1,7.09,3.1,7.09,5.5,26.5,5.5,26.5L716.5,262l-.72,10.16-4.5,12.5-4.5,12.5-7.37,9.33-7.37,9.33-10.12,6.63-10.12,6.63-4.44,9.28-4.44,9.28,5.82,9.89,5.82,9.89,20.73,4.64L716,376.73l43.83-38.67,43.83-38.67.54-.46.54-.46,52-42.5,52-42.5,5.54-3.13,5.54-3.13,26.5-9.5,26.5-9.5,9.46-.84,9.46-.84,29.5,5,29.5,5,11,6.18,11,6.18,23.5,27,23.5,27,3.84,17.63,3.84,17.63-10.5,35.5-10.5,35.5-5.54,8.71-5.54,8.71-53,47-53,47-7.19,4-7.19,4L871.47,518.68,767.94,548.85l-24.36,50-24.36,50-13,10.14-13,10.14-64,13.5ZM374.9,532l47,.5,47,.5L482,538.49,495,544l37.31,37.31,37.31,37.31,45.08-9.51,45.08-9.51,24-49.26,24-49.26,11.61-9.79L731,481.5l107.46-31.32,107.46-31.32,45.83-40.64,45.83-40.64,6.06-20.49,6.06-20.49-12.34-14.18L1025,268.23,1007,265.17l-18.05-3.06-18.84,6.75-18.84,6.75L902,315.85l-49.23,40.23L802,400.85l-50.74,44.77-16.5,4.24-16.5,4.24-38-8.5-38-8.5-12.07-8.79-12.07-8.79-15-25.5-15-25.5-.75-17.6-.75-17.6,11-23,11-23,6.64-7.59,6.64-7.59,9.26-6.06,9.26-6.06.58-1.62.58-1.62L638,239.31l-3.62-17.45-12.55-17.57-12.55-17.57-33.46-17.15-33.46-17.15-45.31-8.16-45.31-8.16-42.18,1.33-42.18,1.33L341.68,149.2,316,159.63l-9.21,14.93-9.21,14.93-1.79,12.8L294,215.08l10.76,28,10.76,28-2.35,17.77-2.35,17.77L288.7,336.93l-22.11,30.35-1.24,36.43-1.24,36.43,9.42,58.42L282.95,557l4.54,12.36L292,581.69l4.14.62,4.14.62,25-21.06,25-21.06,12.27-4.4Z"
          transform="translate(-189.02 -61.02)"/>
</svg>
